# xmcd
#
# Track frame offsets: 
#        150
#        33920
#        71389
#        112196
#        145355
#        183122
#        213369
#        246972
#        286524
#        312530
#
# Disc length: 4612 seconds
#
# Revision: 0
# Processed by: cddbd v1.5.2PL0 Copyright (c) Steve Scherf et al.
# Submitted via: ExactAudioCopy v0.95b4
#
DISCID=9012020a
DTITLE=Various Artist - Goa Vol. 22 [CD2]
DYEAR=1900
DGENRE=Electronic
TTITLE0=01.Sundose - Psy Maroco
TTITLE1=02.Behing Blue Eyes - Rumble In The Jungle (Zen Mechanics Remi
TTITLE1=x)
TTITLE2=03.Zen Mechanics - Vurt
TTITLE3=04.BrockenToy - This One Thing
TTITLE4=05.Headroom - Artelligent
TTITLE5=06.Commercial Hippies - When The Shit Hits The Fan
TTITLE6=07.Sangeer - Distorted Dream
TTITLE7=08.Rumble Pack - Binary Beach
TTITLE8=09.Krueger And Coyle - The Witness (Dejavoo Remix)
TTITLE9=10.Aquaspace - Deep Mental Universe
EXTD=
EXTT0=
EXTT1=
EXTT2=
EXTT3=
EXTT4=
EXTT5=
EXTT6=
EXTT7=
EXTT8=
EXTT9=
PLAYORDER=
